<svg width="694" height="133" viewBox="0 0 694 133" fill="none" xmlns="http://www.w3.org/2000/svg">
<path d="M423.915 25.9631V112.311H448.306V25.9631H423.915ZM232.086 25.8459V112.311H256.689V45.1929L275.882 45.2588C282.192 45.2588 286.562 46.774 289.6 50.0168C293.457 54.1307 295.031 60.7553 295.031 72.8773V112.311H318.865V64.5398C318.865 30.4429 297.132 25.8459 275.875 25.8459H232.086ZM463.18 25.9631V112.303H502.731C523.805 112.303 530.679 108.797 538.123 100.942C543.379 95.4231 546.775 83.3158 546.775 70.0811C546.775 57.9444 543.899 47.1181 538.884 40.3763C529.851 28.3201 516.836 25.9631 497.402 25.9631H463.18ZM487.366 44.761H497.848C513.059 44.761 522.897 51.5906 522.897 69.3125C522.897 87.0343 513.059 93.8713 497.848 93.8713H487.366V44.761ZM388.757 25.9631L368.407 94.391L348.907 25.9631H322.584L350.437 112.303H385.58L413.653 25.9631H388.765H388.757ZM558.121 112.303H582.512V25.9631H558.114V112.303H558.121ZM626.484 25.9923L592.431 112.274H616.477L621.865 97.0262H662.162L667.264 112.274H693.367L659.058 25.985H626.484V25.9923ZM642.317 41.7378L657.089 82.1592H627.076L642.317 41.7378Z" fill="black"/>
<path d="M74.8143 40.3544V28.474C75.9709 28.3934 77.1348 28.3276 78.3206 28.291C110.822 27.2661 132.145 56.217 132.145 56.217C132.145 56.217 109.116 88.2057 84.4256 88.2057C80.868 88.2057 77.6838 87.6347 74.8143 86.6684V50.6318C87.4707 52.1617 90.0108 57.7469 97.6163 70.4252L114.533 56.1584C114.533 56.1584 102.184 39.9591 81.3658 39.9591C79.1039 39.9591 76.9371 40.1202 74.807 40.3471M74.8143 1.10425V18.8554C75.9782 18.7602 77.1494 18.687 78.3206 18.6431C123.515 17.1205 152.963 55.7119 152.963 55.7119C152.963 55.7119 119.145 96.836 83.9058 96.836C80.6777 96.836 77.6545 96.5359 74.8143 96.0381V107.011C77.2446 107.318 79.7627 107.501 82.3833 107.501C115.17 107.501 138.887 90.7604 161.85 70.9376C165.656 73.9828 181.241 81.398 184.447 84.6481C162.611 102.926 111.737 117.654 82.8883 117.654C80.1067 117.654 77.4349 117.486 74.8143 117.237V132.653H199.438V1.10425H74.8143ZM74.8143 86.6684V96.0381C44.4873 90.6286 36.0692 59.1084 36.0692 59.1084C36.0692 59.1084 50.6288 42.975 74.8143 40.3617V50.6391C74.8143 50.6391 74.785 50.6391 74.7704 50.6391C62.0774 49.1165 52.166 60.975 52.166 60.975C52.166 60.975 57.722 80.9368 74.8216 86.6831M20.946 57.7396C20.946 57.7396 38.9167 31.219 74.807 28.474V18.8554C35.0591 22.0469 0.632812 55.7119 0.632812 55.7119C0.632812 55.7119 20.1261 112.076 74.807 117.237V107.011C34.6784 101.96 20.946 57.7396 20.946 57.7396Z" fill="#76B900"/>
</svg>
