<svg width="480" height="372" viewBox="0 0 480 372" fill="none" xmlns="http://www.w3.org/2000/svg">
<path d="M199.522 281.615V371.316H224.852V281.615H199.522ZM0.320068 281.492V371.316H25.8662V303.112H45.6593C52.2133 303.112 56.8882 304.753 60.0458 308.12C64.0507 312.389 65.6834 319.277 65.6834 331.874V371.316H90.4363V321.688C90.4363 286.269 67.8707 281.492 45.7902 281.492H0.320068ZM240.286 281.615V371.316H281.359C303.239 371.316 310.386 367.671 318.111 359.512C323.571 353.779 327.098 341.205 327.098 327.452C327.098 314.846 324.11 303.597 318.904 296.593C309.523 284.065 296.007 281.623 275.829 281.623H240.294L240.286 281.615ZM265.409 301.147H276.299C292.095 301.147 302.307 308.243 302.307 326.658C302.307 345.073 292.095 352.169 276.299 352.169H265.409V301.147ZM163.008 281.615L141.875 352.708L121.628 281.623H94.2948L123.214 371.316H159.712L188.863 281.615H163.016H163.008ZM338.882 371.308H364.204V281.615H338.874V371.308H338.882ZM409.867 281.646L374.509 371.277H399.478L405.069 355.436H446.912L452.21 371.277H479.32L443.693 281.638H409.867V281.646ZM426.302 297.996L441.644 339.988H410.483L426.31 297.996H426.302Z" fill="black"/>
<path d="M166.043 71.5011V49.9504C168.13 49.804 170.248 49.6884 172.397 49.6191C231.306 47.7699 269.96 100.264 269.96 100.264C269.96 100.264 228.218 158.266 183.456 158.266C177.01 158.266 171.241 157.226 166.043 155.477V90.1316C188.978 92.9054 193.591 103.037 207.377 126.029L238.045 100.163C238.045 100.163 215.656 70.7923 177.926 70.7923C173.821 70.7923 169.894 71.085 166.043 71.4934M166.043 0.315201V32.5064C168.161 32.3369 170.271 32.2059 172.397 32.1289C254.326 29.3705 307.698 99.3467 307.698 99.3467C307.698 99.3467 246.393 173.931 182.524 173.931C176.671 173.931 171.195 173.391 166.043 172.474V192.368C170.448 192.931 175.007 193.255 179.767 193.255C239.208 193.255 282.19 162.889 323.81 126.946C330.703 132.47 358.96 145.923 364.767 151.817C325.188 184.964 232.962 211.677 180.676 211.677C175.639 211.677 170.795 211.377 166.035 210.914V238.875H391.938V0.315201H166.035H166.043ZM166.043 155.485V172.474C111.069 162.666 95.812 105.503 95.812 105.503C95.812 105.503 122.205 76.2473 166.043 71.5088V90.147C166.043 90.147 165.989 90.1393 165.958 90.1393C142.953 87.3733 124.978 108.878 124.978 108.878C124.978 108.878 135.052 145.076 166.043 155.493M68.4021 103.022C68.4021 103.022 100.98 54.9278 166.043 49.9504V32.5064C93.9867 38.2928 31.5885 99.3467 31.5885 99.3467C31.5885 99.3467 66.9311 201.56 166.043 210.922V192.376C93.309 183.223 68.4021 103.03 68.4021 103.03V103.022Z" fill="#76B900"/>
</svg>
